<svg 
    xmlns="http://www.w3.org/2000/svg" 
    xmlns:xlink="http://www.w3.org/1999/xlink" 
    style="margin: auto; background: rgb(0, 0, 0, 0) none repeat scroll 0% 0%; display: block; height: 100vh" 
    width="400px" 
    height="400px" 
    viewBox="0 0 100 100" 
    preserveAspectRatio="xMidYMid"
>
    <g transform="translate(50 40)">
        <g>
            <animateTransform attributeName="transform" type="rotate" values="0;45" keyTimes="0;1" dur="0.5208333333333333s" repeatCount="indefinite"></animateTransform>
            <path d="M27.11088342345192 -7 L36.110883423451924 -7 L36.110883423451924 7 L27.11088342345192 7 A28 28 0 0 1 24.120036980986647 14.220542044374982 L24.120036980986647 14.220542044374982 L30.483998011665577 20.58450307505391 L20.58450307505391 30.483998011665577 L14.220542044374982 24.120036980986647 A28 28 0 0 1 7 27.11088342345192 L7 27.11088342345192 L7.000000000000001 36.110883423451924 L-6.999999999999996 36.110883423451924 L-6.9999999999999964 27.11088342345192 A28 28 0 0 1 -14.220542044374977 24.12003698098665 L-14.220542044374977 24.12003698098665 L-20.584503075053906 30.48399801166558 L-30.483998011665577 20.58450307505391 L-24.120036980986647 14.220542044374978 A28 28 0 0 1 -27.110883423451916 7.000000000000008 L-27.110883423451916 7.000000000000008 L-36.11088342345192 7.000000000000009 L-36.110883423451924 -7.000000000000001 L-27.11088342345192 -7.000000000000002 A28 28 0 0 1 -24.120036980986654 -14.220542044374973 L-24.120036980986654 -14.220542044374973 L-30.483998011665584 -20.584503075053902 L-20.58450307505391 -30.483998011665577 L-14.220542044374982 -24.120036980986647 A28 28 0 0 1 -7.000000000000009 -27.110883423451916 L-7.000000000000009 -27.110883423451916 L-7.000000000000011 -36.11088342345192 L6.999999999999997 -36.110883423451924 L6.999999999999999 -27.11088342345192 A28 28 0 0 1 14.220542044374973 -24.120036980986654 L14.220542044374973 -24.120036980986654 L20.584503075053902 -30.483998011665584 L30.483998011665577 -20.58450307505391 L24.120036980986647 -14.220542044374982 A28 28 0 0 1 27.110883423451916 -7.000000000000011 M0 -19A19 19 0 1 0 0 19 A19 19 0 1 0 0 -19" fill="#1d3f72"></path>
        </g>
    </g>
    <g transform="translate(10 95)">
        <text fill="#1d3f72" font-family="-apple-system, BlinkMacSystemFont, 'Segoe UI', Roboto, 'Helvetica Neue', Arial, 'Noto Sans', sans-serif, 'Apple Color Emoji', 'Segoe UI Emoji', 'Segoe UI Symbol', 'Noto Color Emoji'">
            Cargando...
        </text>
    </g>
</svg>
